<?xml version="1.0" encoding="UTF-8" standalone="no"?>
<svg
   xmlns:dc="http://purl.org/dc/elements/1.1/"
   xmlns:cc="http://creativecommons.org/ns#"
   xmlns:rdf="http://www.w3.org/1999/02/22-rdf-syntax-ns#"
   xmlns:svg="http://www.w3.org/2000/svg"
   xmlns="http://www.w3.org/2000/svg"
   xmlns:sodipodi="http://sodipodi.sourceforge.net/DTD/sodipodi-0.dtd"
   xmlns:inkscape="http://www.inkscape.org/namespaces/inkscape"
   data-name="Layer 1"
   width="13"
   height="25"
   viewBox="0 0 90.766348 153.80537"
   version="1.1"
   id="svg14"
   sodipodi:docname="undraw_handcrafts_signs.svg"
   inkscape:version="1.0.1 (3bc2e813f5, 2020-09-07)">
  <metadata
     id="metadata20">
    <rdf:RDF>
      <cc:Work
         rdf:about="">
        <dc:format>image/svg+xml</dc:format>
        <dc:type
           rdf:resource="http://purl.org/dc/dcmitype/StillImage" />
      </cc:Work>
    </rdf:RDF>
  </metadata>
  <defs
     id="defs18" />
  <sodipodi:namedview
     pagecolor="#ffffff"
     bordercolor="#666666"
     borderopacity="1"
     objecttolerance="10"
     gridtolerance="10"
     guidetolerance="10"
     inkscape:pageopacity="0"
     inkscape:pageshadow="2"
     inkscape:window-width="1920"
     inkscape:window-height="1017"
     id="namedview16"
     showgrid="false"
     inkscape:zoom="1.0829795"
     inkscape:cx="-402.31951"
     inkscape:cy="189.27699"
     inkscape:window-x="-8"
     inkscape:window-y="-8"
     inkscape:window-maximized="1"
     inkscape:current-layer="svg14" />
  <path
     d="m 1.2e-4,118.02721 72.87016,-103.043 c -2.84532,48.4367 -28.18861,95.08792 -67.27446,123.837 -2.80808,-6.81541 -5.61616,-13.63077 -5.5957,-20.794 z"
     fill="#373856"
     id="path6" />
  <path
     d="M 51.7769,98.82861 A 453.90543,453.90543 0 0 0 90.76635,148.70953 496.803,496.803 0 0 0 60.96986,86.60296 C 70.12055,73.89933 77.56798,61.73396 81.74015,51.36753 A 308.66906,308.66906 0 0 0 55.34659,77.00023 550.1821,550.1821 0 0 0 0,0 510.9999,510.9999 0 0 0 45.15615,88.641 327.3059,327.3059 0 0 0 2.95886,153.80538 653.64182,653.64182 0 0 0 51.7769,98.82861 Z"
     id="path12" />
</svg>
