<?xml version="1.0" encoding="UTF-8" standalone="no"?>
<svg
   xmlns:dc="http://purl.org/dc/elements/1.1/"
   xmlns:cc="http://creativecommons.org/ns#"
   xmlns:rdf="http://www.w3.org/1999/02/22-rdf-syntax-ns#"
   xmlns:svg="http://www.w3.org/2000/svg"
   xmlns="http://www.w3.org/2000/svg"
   xmlns:sodipodi="http://sodipodi.sourceforge.net/DTD/sodipodi-0.dtd"
   xmlns:inkscape="http://www.inkscape.org/namespaces/inkscape"
   width="118.78606mm"
   height="162.3902mm"
   viewBox="0 0 118.78606 162.39019"
   version="1.1"
   id="svg8"
   inkscape:version="1.0.1 (3bc2e813f5, 2020-09-07)"
   sodipodi:docname="tablet.svg">
  <defs
     id="defs2" />
  <sodipodi:namedview
     id="base"
     pagecolor="#ffffff"
     bordercolor="#666666"
     borderopacity="1.0"
     inkscape:pageopacity="0.0"
     inkscape:pageshadow="2"
     inkscape:zoom="0.98994949"
     inkscape:cx="420.96385"
     inkscape:cy="332.28011"
     inkscape:document-units="mm"
     inkscape:current-layer="layer1"
     inkscape:document-rotation="0"
     showgrid="false"
     inkscape:window-width="1920"
     inkscape:window-height="1017"
     inkscape:window-x="1912"
     inkscape:window-y="-8"
     inkscape:window-maximized="1" />
  <metadata
     id="metadata5">
    <rdf:RDF>
      <cc:Work
         rdf:about="">
        <dc:format>image/svg+xml</dc:format>
        <dc:type
           rdf:resource="http://purl.org/dc/dcmitype/StillImage" />
        <dc:title></dc:title>
      </cc:Work>
    </rdf:RDF>
  </metadata>
  <g
     inkscape:label="Livello 1"
     inkscape:groupmode="layer"
     id="layer1"
     transform="translate(68.959379,-16.995105)">
    <path
       id="rect1203"
       style="fill:#ffffff;fill-opacity:1;fill-rule:evenodd;stroke:#ffffff;stroke-width:0.755906;stroke-linejoin:round"
       d="m 719.38086,198.83594 c -36.88101,2.0069 -74.52799,4.84392 -112,3.98633 -27.57098,-0.63111 -55.461,-0.18124 -83,-1.08594 -14.80498,-0.4864 -30.24998,-2.57638 -45,-1.85938 -4.88901,0.23771 -9.10301,2.76131 -14,2.94141 -18.11101,0.66612 -36.81019,0.0176 -55,0.0176 -13.03608,0 -26.66091,0.39661 -35.78711,11.0039 -9.5167,11.0612 -7.87856,27.69833 -8.06641,41.41993 -0.0866,6.3198 -2.6105,12.30697 -2.93554,18.57617 -0.89118,17.19599 0.99107,34.66697 1.75,52 2.92418,66.77798 -0.93448,134.15397 -0.96094,201 -0.008,20.27096 -0.84777,40.75001 0.0391,61 0.36117,8.24999 5.27964,17.07901 2.96094,25 v -2 h -1 c 0,40.634 -1.12267,81.44122 -0.79688,121.94922 0.14351,17.84201 -3.71773,37.60077 0.79688,55.05078 l 2,-1 c 9.95709,38.568 62.31971,17.05194 89,22.00195 13.47803,2.50001 27.38599,0.84766 41,0.84766 23.04601,0 46.06896,0.20715 69,0.16406 64.87896,-0.11943 130.21198,-0.0117 195,-0.0117 l -2,-2 v -1 c 13.874,0 27.95325,0.40409 37.07226,-12.00391 8.37298,-11.39399 6.92774,-26.63807 6.92774,-39.99609 v -79 c 0,-11.02099 2.67699,-25.67701 -1,-36 3.40297,-0.72899 2.98866,-2.806 3,-6 h -1 v 4 h -1 c 0,-30.07899 -4.75899,-65.20899 3,-94 h 0.80078 l -0.80078,-6 h -1 v 6 h -1 l -1,-88 h 1 v 40 h 1 v -3 h 1 l 1,19 h 1 c 0,-20.32895 -0.16742,-40.66238 -0.3457,-61 h -0.6543 l 0.62891,-3.14062 c -0.4368,-49.58016 -0.90202,-99.19058 0.82226,-148.85938 0.912,-26.24434 7.63798,-69.54525 -13.625,-89.56055 -11.099,-10.4479 -22.02715,-8.60754 -35.82617,-8.44336 -14.32898,0.17039 -28.67,0.004 -43,0.004 v -1 h 2 v -1 z m 89.62891,248.86133 c 0.009,1.04681 0.0162,2.09383 0.0254,3.14062 h 0.3457 v -5 z m -0.82813,96.14062 0.19922,1.5 v -1.5 z m 0.19922,1.5 v 7.5 h 1 z m -57,-341.50195 h 22 l -22,1 z m -293,0.002 10,0.99805 h -10 z m 182,0 3,1 h -3 z m 60.55273,6.60547 c 3.25373,0.002 6.71693,0.72341 10.44727,2.39453 l -5.9082,2.36328 1.9082,0.63672 h -3 v -0.19922 l -23,9.19922 2,3 -27,15 c 3.05304,-6.2666 9.78233,-10.92225 14.98633,-15.43945 8.98908,-7.80289 17.94594,-16.96331 29.5664,-16.95508 z m 3.44727,5.19531 1.0918,-0.4375 -1.0918,-0.36328 z m 27.39844,-4.89062 c 5.03121,0.0202 9.87188,0.52473 13.60156,2.08984 -8.29897,2.4532 -23.62702,1.814 -32,0 v -1 c 5.14573,-0.34194 11.92973,-1.11583 18.39844,-1.08984 z m -318.39844,0.0898 h 17 l -9,5 2,-4 -21,12 2,2 -5,2 c 1.83621,-6.2568 9.22828,-10.5723 15,-13 z m 51,0 c 0.70798,3.9976 -12.461,9.5308 -16,11 v -1 z m 112,0 c -2.67255,3.76326 -7.48293,7.04908 -12.95508,10.04492 l 0.95508,0.95508 -84.03906,55.64453 -24.96094,16.35547 5,-2 c -5.47298,7.06401 -13.76399,7.01802 -22,6 v -1 l 27.30664,-16.60351 c -6.68334,3.8137 -13.4404,7.39783 -20.30664,10.60351 6.626,-8.92321 19.67998,-14.20568 29,-20.05078 17.915,-11.2359 35.4556,-22.91557 53.01562,-34.50977 11.304,-7.4642 24.33236,-12.80675 32.98438,-23.43945 -17.76699,2.2962 -35.37398,17.28959 -50,26.90039 -10.8685,7.14149 -21.99299,14.60731 -33.29492,21.96289 l 29.33398,-17.86133 40.96094,-25.00195 c -2.38103,8.4326 -21.76999,16.52508 -29,21.05078 -20.70399,12.9602 -40.44398,26.88359 -61,39.89649 -7.79898,4.93719 -21.48052,9.81272 -26,18.05273 h -12 v -1 l 16.08789,-9.79492 c -6.9933,3.85843 -14.02574,7.49776 -21.08789,10.79492 9.19699,-10.81002 26.95102,-17.91963 39,-25.42383 30.12102,-18.7597 62.838,-35.91227 89,-59.57617 -10.66802,0.8655 -19.987,8.40527 -29,13.57227 -19.006,10.89659 -37.19299,23.11943 -56,34.42773 -9.74997,5.8623 -23.6091,11.3143 -31,20 l 104,-62 v 1 c -25.55403,17.2421 -52.3573,32.45564 -77.94531,49.61523 -17.52431,11.7519 -33.40639,26.64877 -55.05469,29.38477 v 6 c -7.05698,4.66998 -12.82067,7.42001 -17,15 l 6,-3 -7,13 1,1 7,-4 -7,14 3,1 -3,4 9,-4 -9,20 5,-1 -6,9 5,-1 -3,5 5,-1 -6,12 8,-4 -7,14 6,2 -6,4 -1,6 5,-2 -5,9 6,-2 -7,20 8,-3 -7,14 5,-2 -5,10 6,-2 -6,14 5,-2 -5,9 4,-1 -5,7 h 3 l -2,4 7,-3 -7,16 7,-3 -7,13 3,-1 -3,6 8,-3 -8,12 5,-1 1,1 -6,12 7,-1 -8,13 5,-1 -4,7 6,-2 -5,12 4,-2 -4,9 5,-2 -5,12 c 2.65829,2.37101 1.26289,5.00699 0,8 l 4,-2 1,1 -6,12 4,-2 1,1 -6,7 9,-4 -7,14 5,-1 1,1 v 2 l -7,14 7,-3 -8,13 7,-2 -4,12 4,-2 -5,13 6,-3 -7,15 7,-4 -7,12 h 7 l -7,10 7,-1 -6,17 6,-3 -7,13 7,-3 -6,18 16,-5 -18,21 c 10.39019,-3.60699 19.46332,-18.126 27,-26 l -13,3 v -1 c 9.32719,-6.40297 20.31172,-4.186 31,-5 v 1 l -16,10 16,-7 v 1 l -45,35 3,1 -2,5 3,-1 v 4 l -3,1 v 5 c 19.27113,-7.05502 42.68042,-21.557 59,-34 -13.7461,1.416 -28.2608,16.51099 -41,22 v -1 l 47,-28.01953 26,-13.98047 -21,15.75586 -69,48.24414 4,-1 c 3.60469,1.55698 6.77833,-1.30341 10,-3.15039 7.17162,-4.11001 19.86093,-8.55059 24,-15.84961 l -27,15 c 6.01512,-7.06998 16.27483,-11.85002 24,-17 14.38261,-9.58802 28.28101,-19.65458 43,-28.80859 10.60698,-6.596 14.77502,-13.19141 28,-13.19141 v 1 l -29,18 12,-6 v 1 l -50,31 -10,9.18945 -26,17.81055 3,-1 -1,4 c 7.65589,-1.25322 18.23038,-5.7893 27.95117,-11.37109 1.80847,-1.15467 3.69343,-2.29093 5.64063,-3.41602 6.27272,-4.01844 11.813,-8.31862 15.4082,-12.21289 l -45,23 c 4.80401,-9.40199 21.13757,-15.8221 30,-21.20312 18.508,-11.23699 37.56593,-21.68832 56.00391,-32.4043 11.54101,-6.707 23.4401,-15.74059 36.99609,-17.39258 v 1 l -51,28.60352 -20,13.39648 35,-20 c -13.40625,16.18045 -38.2979,26.17097 -57.4082,37.21289 -1.8281,1.17112 -3.71551,2.31059 -5.64063,3.41602 -0.30154,0.19253 -0.62087,0.38061 -0.91797,0.57422 -6.78799,4.42303 -12.3048,13.91639 -21.0332,15.44336 -8.84459,1.54801 -16.8303,-11.43749 -17,-18.64649 h 1 v 2 h 1 l 2,-116 -2,1 2,-10 -0.0391,-36 -0.96094,-44 -1.82031,-56 2.56054,-123 -0.74023,-109 0.81641,-30.00391 0.18359,-20.99609 13,-6 v 1 l -10,8 15,-7 -18,14 19,-10.43164 26,-13.56836 v 1 l -24.08984,17.96094 -19.91016,18.03906 11,-6 v 1 l -11,9 9,-5 v 1 l -9,5 v 2 c 7.86709,0.607 15.39459,-5.96075 22,-9.71875 17.19719,-9.7841 33.07839,-22.80525 51,-31.28125 v 1 l -51.12891,36.79492 -20.87109,15.20508 8,-3 -3,5 10,-5 v 1 l -17,10 v 1 l 5,1 h 1 l 16,-10 v 4 l -21,15 35,-21.89648 48.98437,-26.56446 46.01563,-28.53906 v 1 c -23.68101,16.1109 -48.37839,30.85244 -71.98438,47.08984 -15.27578,10.5071 -31.40692,24.46316 -49.01562,30.91016 l 2,3 -11,9 c 32.31987,-20.27301 63.35864,-43.44555 95.01562,-64.56055 13.19702,-8.80269 34.49038,-16.72295 42.98438,-30.43945 -22.93002,3.9823 -41.33297,24.3398 -62,34 7.42099,-17.0178 37.84797,-17.3204 46,-34 l -33,18 v -1 l 19,-13 -95,54 c 5.82489,-9.2343 16.33162,-13.84352 25,-20.04101 18.11603,-12.9522 39.05399,-35.95899 62,-35.95899 v -1 l -14,-1 v -1 l 74,-0.29101 z m -140.91211,76.20508 c 14.07595,-7.76617 27.97873,-16.46555 41.61719,-25.3418 z m 30.21875,-6.80859 c 6.82662,-3.89547 13.57447,-8.0362 20.26172,-12.31836 z m 20.26172,-12.31836 76.41992,-46.4629 c -8.31975,4.43392 -17.92849,8.23462 -23.94922,11.98829 -17.41414,10.85769 -34.74408,23.1234 -52.4707,34.47461 z m 76.41992,-46.4629 c 0.35443,-0.18888 0.70731,-0.37906 1.05664,-0.57031 l -0.0449,-0.0449 z m 16.01172,-10.61523 c 13.09599,2.4313 28.813,1.7321 42,0 l -9,2 v 1 h 5 v 1 l -39,24 c 4.571,-7.2874 12.309,-15.0632 20,-19 l 2,-7 c -5.67798,0.584 -11.15498,5.14278 -16,7.98828 -12.01595,7.0573 -29.93401,13.35772 -39,24.01172 l -10,1 32.90625,-21.67187 12.98242,-8.88282 0.11133,-0.11132 c 0.019,0 0.0276,0.003 0.0449,0.004 l 1.95508,-1.33789 v -1 l -4,-1 z m 2.04492,4.33789 -0.15625,0.10742 -0.22265,0.22071 c 0.48073,0.16046 1.06733,-0.30494 0.3789,-0.32813 z m 72.95508,-4.33789 -5,5 -2,-3 v -1 z m 13,0 c 2.302,3.98072 5.60399,4.66 10,4 v 1 l -16,11 18,-10 -30,29 3,-1 v 3 l 9,-5 -12,8 1,3 -6,3 c -1.453,-13.0388 -12.64199,-5.0556 -18,-12 h -1 c -3.216,2.2788 -7.31,3.4137 -10,0 l 4,1 1,-3 -3,-1 c 9.96801,-9.334 26.616,-17.2184 39,-23 l -26,27 c 14.13203,-9.0247 24.18001,-28.998 42,-29 v -1 h -7 l -1,-4 -12,7 v -1 l 6,-3 -1,-3 z m -42,34 1,-3 -2,3 z m -229,-33 17,1 -24,14 8,-11 z m 36,0 20.86523,0.99414 1.13477,-0.99414 5,1 -13,7 v -1 l 6.70898,-5.86914 -15.70898,7.01953 -39,23.84961 15.94531,-13.03516 20.05469,-14.96484 z m 20.70898,1.13086 0.29102,-0.13086 -0.13477,-0.006 z m 169.29102,-1.13086 24,1 -10,2 h -1 l -11,1 2,-3 h -4 z m 125,0 10,1 h -10 z m -352,1 -10,4 v -1 z m 94,0 c -8.92501,1.4213 -29.56,12.1706 -34,20 10.31501,-2.9773 27.03399,-11.8132 34,-20 z m 182,0 9,1 h -9 z m -103,1 -4,1 h 4 z m 200.35156,0.875 c 2.99625,0.0433 5.84908,0.57831 7.64844,3.125 -13.06998,0.7328 -31.38399,15.85437 -42,23.23047 -16.30798,11.3316 -34.48893,19.91801 -50.96094,31.00781 -11.22701,7.559 -22.91305,17.60673 -36.03906,21.76172 v -1 c 30.40601,-16.18681 57.77201,-38.37287 87,-56.57617 10.246,-6.3811 22.10998,-19.38981 34,-19.42383 v -1 h -5 v -1 c 1.70437,0 3.55381,-0.15096 5.35156,-0.125 z m -22.35156,0.125 9,1 -95,57 v -1 c 20.96602,-14.345 42.271,-27.7208 64,-41 4.23398,-2.5876 20,-9.1609 20,-14 z m -222,1 -6,1 h 6 z m 261,0 c 17.80301,3.6224 12.91276,32.164 13.04883,45 0.0521,4.8826 1.83114,10.4005 -0.0488,15 l -1.68164,-40 z m -385,0.33203 c -0.77337,0 -0.15951,0.49847 0.33398,0.33399 z m 292,0 -0.33398,0.33399 c 0.49285,0.1645 1.10697,-0.33399 0.33398,-0.33399 z m 31.82812,0.59961 c 0.4,-0.009 0.79132,0.0128 1.17188,0.0684 l -20,11 v -1 c 4.81596,-2.94797 12.82819,-9.93788 18.82812,-10.06836 z m -102.82812,0.0684 5,1 h -5 z m 97,0 -49,28 v -1 l 35,-20.85156 z m 12.6582,0.25 c 1.21996,-0.005 2.34568,0.22685 3.3418,0.75 l -83,50.39844 -36,21.60156 v -1 c 29.78302,-18.29428 58.47898,-38.03938 88,-56.42578 5.943,-3.70142 19.1185,-15.28905 27.6582,-15.32422 z m -341.6582,0.75 c -0.3586,5.1782 -5.07281,10.8493 -9,14 0.65862,-6.3956 3.73463,-10.4929 9,-14 z m 392.26758,0.78906 c 6.11087,0.33061 14.32533,12.749 10.68945,17.44727 -1.91898,2.4791 -8.13104,3.53291 -10.95703,5.07031 -8.51101,4.6305 -17.608,9.40816 -25,15.69336 l 38,-18 -17,10.60352 -44,26.39648 40,-22 v 1 c -14.12398,9.5283 -27.86811,19.45051 -41.99609,29.00391 -10.55203,7.135 -13.08489,12.99609 -27.00391,12.99609 v -1 l 25,-15 -36,15 c 11.02503,-13.34021 30.69893,-21.98834 44.96094,-31.58984 11.20198,-7.5423 22.26705,-17.57606 35.03906,-22.41016 l -1,-3 17,-13 -2,-3 c -13.16598,5.98 -30.93898,12.11 -41,23 l 36,-20 c -5.69,8.8639 -22.02101,14.28261 -31,19.60352 -25.78099,15.27729 -51.85898,32.72519 -79,45.39648 9.40301,-12.18359 29.03105,-20.05096 41.99805,-28.19336 17.13101,-10.7564 33.67494,-22.87723 51.00195,-33.61523 4.60498,-2.8538 9.65307,-8.02501 14.45508,-10.09571 0.57169,-0.24646 1.18034,-0.34084 1.8125,-0.30664 z m -189.26758,0.21094 -16.70117,17.61523 -6.89453,7.5918 -17.4043,-0.20703 12,-9 z m -148,1 -2,2 v -1 z m 307,0 1,1 c -29.09098,19.625 -58.13401,42.9251 -90,58 l 1,2 c -11.381,7.67801 -20.85901,16 -35,16 v -1 z m -19,1 1,1 c -29.06899,19.6107 -58.92198,37.9147 -89,56 -13.25299,7.96899 -21.41298,19.99804 -38,20 v -1 l 64.08984,-37.55078 z m 35,2 1,1 c -25.80302,18.5488 -53.42012,34.1803 -79.99609,51.5918 -12.96904,8.49689 -23.69887,20.11919 -40.00391,21.4082 v -1 c 40.63402,-21.62741 80.816,-47.2615 119,-73 z m -135.24219,0.95899 c 0.42454,-0.0102 0.83963,0.002 1.24219,0.041 l -20,10 c 3.78468,-4.44862 12.38969,-9.88779 18.75781,-10.04101 z m 71.24219,4.04101 1,1 -4,2 v -1 z m 70,7 1,1 c -18.002,12.8932 -37.32598,24.29318 -55,37.51367 -13.68499,10.2361 -27.43699,23.43833 -45,23.48633 v -1 z m -183,1 -13,7 v -1 z m 11,1 1,1 -7,4 z m 204,0 1,12 h -1 z m -197,2 1,1 -6,3 v -1 z m 23,1.33399 -0.33398,0.33203 c 0.49285,0.1645 1.10697,-0.33203 0.33398,-0.33203 z m -2,1.66601 -1,3 h 1 z m 164,1 1,10 c -11.378,0.0503 -21.74301,10.7072 -32,15 l 1,2 -28,16 v -1 z m -154,1 -1,1 z m 7,0 -1,1 z m 32,0 c -3.63598,6.6286 -13.68002,10.66057 -20,14.57617 -16.13802,9.9992 -31.04098,21.05227 -47,31.10547 -7.329,4.61802 -13.891,10.29936 -23,8.31836 v -1 l 63.99609,-36.61914 z m -90,1 2,2 h -2 z m 23,0 -8,2 v -1 z m 26,0 -1,1 z m 10,2 -1,1 z m -116,2 -6,4 1,3 -20,9 v -1 z m 274,1 1,7 h -1 z m -12,5 1,5 -7,1 v -1 z m -275,5 c -1.42401,5.1933 -9.84147,9.15125 -13.98047,12.37305 -11.136,8.66619 -24.54452,27.82297 -40.01953,22.62695 l 17,-12 -9,5 24,-18 c 6.57199,2.0982 16.61398,-6.4471 22,-10 z m 5,0.44727 8,2.55273 -22,15 8,-4 v 1 c -10.31698,6.8271 -24.54899,19.71802 -37,21 l 28.74023,-23.75586 z m 262,0.55273 1,1 -4,2 v -1 z m 9,1 v 18 l -17,6 16,-14 -37,20 20.94531,-17.15234 z m -171.76172,2.32813 c 2.42711,0.005 5.00153,0.51361 7.76172,1.67187 l -49,30 c 3.12597,-6.17699 9.83701,-10.78266 15,-15.28906 7.98038,-6.96507 15.7208,-16.40253 26.23828,-16.38281 z m -22.96484,0.2871 c 1.99605,0.0373 3.91881,0.4704 5.72656,1.38477 l -18,12 19,-10 v 1 c -15.707,11.0623 -26.533,32.92602 -48,29 v -1 l 20,-13 -17,9 c 6.74365,-9.49444 24.30108,-28.6457 38.27344,-28.38477 z m -50.16602,0.18165 c 1.69316,-0.0263 3.36295,0.32948 4.89258,1.20312 -13.69002,9.0587 -27.05701,21.95501 -43,27 6.66002,-9.02299 20.48402,-19.42477 30,-25.51758 2.4,-1.53656 5.28549,-2.64174 8.10742,-2.68554 z m -45.10742,0.20312 1,1 -4,2 v -1 z m 31,0 1,1 -4,2 v -1 z m 42.22266,0.0801 c 1.82239,-0.0451 3.7414,0.234 5.77734,0.91992 l -18,12 20,-11 c -6.74895,8.3433 -27.80503,18.12302 -29,29 l -19,2 v -1 l 19,-12 -18,9 c 3.96699,-5.38602 9.74106,-8.53169 14.83008,-12.74609 7.51948,-6.22671 14.55166,-15.93016 24.39258,-16.17383 z m 207.77734,0.91992 c -14.61899,9.0234 -29.89399,29.61199 -48,30 v -1 l 27,-21 z m -248.68945,2.93555 c 0.2274,0.01 0.45782,0.0307 0.68945,0.0645 l -22.05469,17.62695 -12.94531,11.37305 -11,-1 v -1 l 18,-11 -4,1 c 4.525,-7.40339 14.92299,-8.87242 22,-13.01172 2.94934,-1.72519 5.89951,-4.19595 9.31055,-4.05273 z m -135.31055,0.0645 1,1 -4,2 v -1 z m 159,1 c -1.40402,5.1436 -8.81633,9.24065 -12.94531,12.34375 -10.29101,7.7346 -15.23772,15.65625 -29.05469,15.65625 v -1 z m 98,3 1,3 -36,20 v -1 z m 101,1 1,1 -30,20 3,-1 v 1 l -12,2 v -1 z m -58,2 1,1 c -10.22597,6.767 -22.987,17.24499 -35,20 v -1 z m 92,5 c 2.199,5.289 0.76999,13.74001 -4,17 l 3,-9 -10,5 z m -8,3 -9,11 -7,-1 v -1 z m -13,1 1,1 -15,8 v -1 z m -181,7 1,1 -9,5 v -1 z m 193,3 -1,6 -3,1 z m 9,2 1,14 h -8 z m -54,2 v 2 h -10 z m 1,0 7,1 v 1 z m -294,1 9,1 h -9 z m 141,0 4,1 h -4 z m 86,0 h 17 l -17,1 z m 112,2 -4,10 c 2.41701,2.22799 1.11,3.93702 -1,6 v -14 z m -288.65625,4.83008 c 2.33732,-0.0167 4.61662,0.31417 6.65625,1.16992 l -18,2 v -1 c 3.39,-1.14749 7.44822,-2.14205 11.34375,-2.16992 z m -64.34375,0.16992 h 16 c -3.06599,4.21002 -11.32061,1.31408 -16,1 z m 151,0 4,1 h -4 z m 132,0 8,1 h -8 z m -319,2 c 1.88727,4.49802 0.94646,10.16598 1.00391,15 0.14369,12.08402 4.89646,36.283 -7.00391,44 l 4,-6 -5,2 1,-5 1,-3 -6,2 9,-21 -3,1 3,-5 -7,3 7,-16 -6,2 z m 371,0 -0.63281,49 -3.33399,26.00391 2.9375,88.99609 -1.96679,130 3.99609,23 -2,-1 -2,76 c -3.589,0.42603 -18.387,2.60098 -19,-1 -8.714,2.254 -19.30202,2.57099 -28,0 -3.70201,4.237 -15.62699,2 -21,2 -20.93397,0 -42.46398,2.12082 -63,-0.57617 -22.47999,-2.95091 -47.29003,-0.2896 -70,0.3164 -49.17902,1.31188 -98.91199,0.25977 -148,0.25977 l 2,2 v 1 l -6,-2 h -1 l -4,2 c -2.23128,-32.834 -1,-66.06603 -1,-99 0,-7.18001 -3.46078,-28.22801 2,-33 l -2,-74 c 3.56678,0.89201 4.6551,-5.07001 4,-9 h -1 v 5 h -1 l -1,-65 h 1 v 29 l 2,-1 v 9 h 1 l 1,-30 -2,1 2,-124 48,-2.98437 69,-0.0156 v 1 h -2 v 1 c 20.19201,-4.29899 42.42803,-2.78173 63,-2.63281 27.27598,0.19616 54.72699,-0.53611 82,0.0879 11.65002,0.26698 23.314,2.40535 35,1.77734 6.04399,-0.325 11.72099,-2.64355 18,-2.77734 14.38499,-0.30611 28.61999,1.36193 43,-0.45508 z m 25,5 c 2.29999,5.542 -1.21202,8.694 -6,11 z m -7,3 -5,13 7,-3 -6,13 h -1 c -0.025,-9.15197 -3.07999,-16.592 5,-23 z m 6,8 h 2 c -0.022,6.24703 -1.05503,9.35403 -7,12 z m 0,12 c 1.658,4.10003 -0.048,6.547 -4,8 z m -6,3 -4,9 h -1 c -1.34903,-5.06899 0.77301,-6.56799 5,-9 z m 6,7 1,11 -6,2 z m -4,1 -7,14 5,-1 -4,9 h -1 c -2.81802,-9.53499 -1.44702,-16.78799 7,-22 z m -12,6 1.0293,23 1.9707,26 c -4.84501,-3.14098 -2.39167,-9.08 -2.25977,-14 0.30698,-11.51902 -0.74023,-23.399 -0.74023,-35 z m -370,2 c 6.08368,8.90298 2.7966,28.31199 3.83008,39 0.40331,4.16999 0.57083,8.48598 -1.83008,12 -4.34347,-14.69401 -1.95767,-35.653 -2,-51 z m 386,4 c 1.28402,3.803 -1.58501,4.99622 -5,5 z m 14,1 1.00781,31 0.99219,35 h -1 c -4.80597,-20.18699 -1,-45.24998 -1,-66 z m -413,8 h 2 c 2.11389,6.08202 -2.0218,8.334 -7,11 z m 388,3 h 2 l -2,2 z m 11,2 2,6 -6,1 z m -11,1 h 2 l -2,3 6,-2 -6,9 v -7 z m 18,2 v 6 h -1 z m -405,2 c 6.0164,14.33201 1.06302,33.00503 2.08984,48 1.65358,24.148 -0.55606,47.96099 0.0391,72 0.44197,17.84702 2.69264,36.146 0.58593,54 -1.59231,13.49499 -0.71106,27.41298 -0.71484,41 -0.003,6.82598 -0.15368,14.21099 -9,12 l 8,-15 -4,1 4,-8 -7,3 5,-13 1,-3 -7,3 8,-21 -4,2 4,-6 -4,-1 4,-14 -7,2 6,-11 -7,1 7,-11 -7,-1 8,-15 -3,1 3,-6 -7,4 7,-14 -7,3 5,-15 v -1 l 2,-3 -3,1 3,-7 -5,1 5,-9 -7,3 7,-14 -7,3 7,-12 -7,3 7,-16 -5,2 5,-7 -1,-1 -5,3 5,-12 -4,2 5,-10 -6,3 6,-8 -6,1 z m 395,5 -8,13 v -10 z m 4,0 c 1.56593,3.733 0.85476,7.99899 1.42773,12 1.735,12.11701 6.57727,41.805 -7.42773,47 l 7,-16 -3,1 1,-3 -5,2 6,-15 -3,1 3,-4 h -7 l 7,-17 -6,3 z m 5,0 c 2.25203,3.40301 2.04102,8.494 0,12 z m -9,13 -8,13 c 0.005,-7.03302 1.01502,-10.42898 8,-13 z m -3.98242,14.79102 c 0.6075,-0.007 1.26761,0.0612 1.98242,0.20898 l -7,11 h 1 l 7,-6 -5,16 -3,2 c -1.5553,-6.53439 -4.09495,-23.1105 5.01758,-23.20898 z m -373.01758,10.20898 -1,4 h 1 z m 364,4 c 5.00901,9.42198 1.02646,21.90798 1,32 h 1 v -2 h 1 l 1,15 h 1 l 5,-6 -5,12 3,-1 v 1 l -3,4 7,-3 -6,15 6,-2 -8,13 1,3 8,-4 -7,14 h -1 l -3,-5 c 0.33097,4.331 1.42998,6.39598 6,6 l -3,4 v 1 h 3 l -4,10 h 1 c 0.72098,-4.26202 3.00799,-5.71001 7,-7 l -4,8 h -1 v -4 h -1 l -2,13 8,-3 -8,17 5,-1 -4,7 8,-4 c -1.86497,5.125 -3.938,10.46802 -9,13 l 1,4 5,-2 -3,10 -2,3 4,-2 -3,6 4,-2 -4,8 5,-1 c -1.19002,3.77102 -3.17198,4.56902 -7,5 l 1,6 6,-2 -5,8 -1,-2 h -1 v 5 l 7,-4 -6,10 h 5 l -5,7 7,-2 -7,11 c 4.54798,0.97501 2.48199,4.76401 1,8 l 4,-1 -5,10 5,-1 -3,9 -1,3 5,-2 c -1.822,6.24499 -7.00098,8.89203 -4,16 l -2,3 8,-3 -8,16 4,-1 -9,9 v -135 l 2,1 v -5 h -1 v 2 h -1 v -46 c 0,-8.965 -1.11798,-17.80798 3,-26 h 0.9082 l -0.9082,-5 -1,5 h -1 z m 3.9082,69 0.0918,0.5 v -0.5 z m 0.0918,0.5 v 5.5 h 1 z m 8,-63.5 -7,14 c 9.8e-4,-7.27903 0.63701,-10.04 7,-14 z m 5,10 2,9 -7,2 z m 4,2 3,21 c -4.81999,-4.14701 -3,-15.14502 -3,-21 z m -9,2 -8,12 c 0.48102,-6.52702 1.16699,-9.81003 8,-12 z m 6,6 c 5.10901,12.177 1,33.73499 1,47 h -1 -7 l 7,-14 -8,3 8,-14 h -4 l 4,-6 -8,4 8,-14 -6,3 z m -9,5 -4,7 -1,-5 z m -6,6 -1,6 h 1 z m -370,1 -1,6 h 1 z m 3,3 -1,3 h 1 z m 0,12 -1,1 z m 0,11 -1,1 z m 0,5 -1,6 h 1 z m 380,7 c 5.06502,2.65501 3.84528,8.02907 3.94922,13.03906 0.27299,13.14203 1.56572,26.82992 1.01172,39.96094 -1.593,37.75298 -0.96094,76.019 -0.96094,114 0,11.721 -0.6994,23.33702 -0.98438,35 -0.15193,6.168 1.35301,13.93462 -0.33398,19.89063 -1.23201,4.35099 -7.19665,4.1952 -10.68164,5.9082 -7.02701,3.45498 -26.73599,11.63716 -29,19.20117 l -52,30 c 17.93102,-21.696 50.50005,-30.02359 71.45508,-48.43359 5.62998,-4.94699 18.17679,-8.11244 18.54492,-16.56641 l -59,33 14,-10.05078 33,-19.94922 13,-7 c -18.24,6.29303 -33.86898,17.17055 -50,27.56055 -17.352,11.17602 -35.60714,20.93169 -52.99414,32.05468 -13.689,8.756 -26.25587,18.61576 -41.00586,26.38477 6.55797,-11.98499 27.49799,-20.89876 39,-27.80078 21.95301,-13.17298 43.05697,-27.43363 65,-40.59961 12.722,-7.63298 30.89999,-16.81663 40,-28.59961 l -18,10 18,-15 -5,2 5,-8 -8,4 c 2.31602,-5.402 8.74303,-12.14098 6,-18 l 2,-6 -1,-6 -4,1 6,-8 -6,2 6,-10 -8,3 7,-12 -4,1 2,-3 -6,2 9,-17 -5,1 v -1 l 3,-3 -6,2 6,-14 -4,2 5,-9 -6,2 5,-8 -6,1 7,-12 -3,1 v -1 l 3,-1 v -6 l -5,1 5,-8 -7,3 c 1.65199,-5.219 7.231,-10.60401 4,-16 l 3,-7 -8,4 8,-17 -9,4 9,-19 -3,1 3,-6 -4,1 v -1 l 4,-4 -7,3 z m 16,2 v 7 h 1 z m -398,8 -1,7 h 2 z m 4,17 -1,7 h 1 z m -2.33398,1.66602 -0.33204,0.66601 z m -2.66602,3.33398 -1,7 h 1 z m 369,0 -1,7 h 1 z m -366.33398,20.66602 -0.33204,0.66601 z m -3,9 -0.33204,0.66601 z m 371.33398,0.33398 -1,3 h 1 z m -369.33398,0.66602 -0.33204,0.66601 z m 398.33398,1.33398 c -1.475,3.52501 -1.30701,6.85603 2,9 z m -397.33398,4.66602 -0.33204,0.66601 z m -3.66602,4.33398 2,3 v -3 z m 371,2 -1,3 h 1 z m 32,11 -1,5 h 1 z m 2,1 -1,9 h 1 z m -5,6 -1,9 h 1 z m -395,3 -1,5 h 1 z m -19,9 h 2 l 4,23 h -1 v -2 h -1 c 0,22.30001 -1.51102,44.706 -1.98633,67 -0.22998,10.78802 2.96142,20.63797 -9.01367,25 l 8,-17 -6,3 5,-12 -7,4 7,-15 -5,1 -1,-1 6,-11 -5,2 -1,-1 7,-14 -7,3 7,-15 -8,4 8,-14 -7,3 7,-13 -6,2 6,-15 -6,2 z m 18,2 -2,1 v 1 l 2,1 z m 398.66602,14.66602 -0.33399,0.66601 z m -401.66602,11.33398 -1,1 z m 401,0 -1,3 h 1 z m -32,1 -1,1 z m 1,4 -1,8 h 1 z m 33,4 -1,3 h 1 z m -402,1 -1,8 h 1 z m 369,4 -1,1 z m 30,0 -1,5 h 1 z m -30,2 -1,6 h 1 z m 33,30 -1,6 h 1 z m -1,13 -1,6 h 1 z m -401,6 -2,2 h 2 z m 359.48437,11.48438 c 0.85027,0.0385 1.69007,0.20259 2.51563,0.51562 l -35,19 1,3 c -18.60098,14.00701 -39.92992,23.7589 -58.96094,37.08789 -14.99101,10.501 -30.50906,25.91211 -49.03906,25.91211 l 23,-14.71875 50,-29.28125 c -15.16698,1.56 -32.136,18.52699 -46,25 v -1 c 22.011,-14.84901 44.69398,-35.73502 70,-45 l -2,-3 c 10.99601,-6.09902 19.22399,-13.38402 32,-15 v 1 l -13,8 c 8.01033,-0.58906 17.26514,-11.88764 25.48437,-11.51562 z m -244.08789,1.18359 c 0.837,0.0173 1.70352,0.12391 2.60352,0.33203 l -28,17.60352 -48,29.39648 v -1 c 17.41202,-11.941 37.01231,-21.36828 53.94531,-33.9043 6.0329,-4.46597 11.36025,-12.59512 19.45117,-12.42773 z m 11.60352,1.33203 -18.08984,10.89844 -32.91016,18.10156 c 4.37401,-5.14099 11.24998,-8.14962 17,-11.59961 10.98198,-6.589 21.41599,-14.49839 34,-17.40039 z m 95,0 13,1 -27,17 15,-15 z m 29,0 -16,11 14,-6 v 1 l -30.03906,22.33984 -11.81836,6.63868 -5.74024,-7.6543 -14.40234,-15.32422 15,-8 -7,10 19,-7 c -3.83399,5.09401 -11.47599,10.10399 -11,17 l 19,-11 -15,18 22,-14 -12,6 v -1 c 10.72702,-8.39399 19.81901,-21.02499 34,-22 z m 22,0 1,1 -13,7 v -1 z m 25,0 h 2 l -2,2 z m -82.23438,0.0156 c 1.7253,-0.0146 3.49988,0.30012 5.23438,0.98437 l -17,7 c 1.85924,-4.92823 6.58974,-7.94059 11.76562,-7.98437 z m 48.16602,0.17382 c 1.30952,-0.0195 2.66261,0.2223 4.06836,0.81055 l -20,13 12,-6 v 1 l -44,25 c 8.46599,-10.97099 25.49099,-21.06462 37,-28.97461 3.459,-2.37676 7.00309,-4.77753 10.93164,-4.83594 z m -120.69531,0.19727 c 1.47893,0.0115 3.05854,0.20366 4.76367,0.61328 -31.545,19.30602 -62.87498,43.29499 -97,58 v -1 c 22.33403,-15.05499 45.31018,-28.8458 67.99219,-43.42578 8.50324,-5.46701 13.89162,-14.26774 24.24414,-14.1875 z m -53.38867,0.0723 c 1.12456,-0.0171 2.18446,0.15026 3.15234,0.54101 -7.06001,4.32098 -18.58704,13.96801 -27,13 4.92885,-4.29799 15.97571,-13.42161 23.84766,-13.54101 z m -61.37891,0.0996 c 1.83464,0.0191 3.68336,0.45922 5.53125,1.44141 l -43,25 c 3.07941,-3.72601 7.18538,-5.95441 10.98437,-8.89844 7.05587,-5.4675 16.5773,-17.64624 26.48438,-17.54297 z m 300.38867,0.008 c 0.71041,0.0412 1.42533,0.17984 2.14258,0.43359 l -62,37 c 7.24101,-13.31898 33.08101,-23.25034 46,-30.86133 4.11249,-2.42287 8.88455,-6.86074 13.85742,-6.57226 z m -44.25,0.0176 c 0.84769,0.005 1.65296,0.13676 2.39258,0.41601 l -19,10 c 2.63026,-4.33473 10.67362,-10.45145 16.60742,-10.41601 z m -121.34961,0.19531 c 1.88301,-0.0148 3.79781,0.35539 5.74219,1.2207 l -127,77 c 7.36199,-9.53299 21.90499,-15.59971 32,-22.05469 l 61.99609,-39.75781 c 7.86038,-5.0338 17.09349,-16.32815 27.26172,-16.4082 z m 18.16406,0.12304 c 2.32827,-0.0891 4.67032,0.29704 6.57813,1.09766 l -87,52.81055 -44,27.18945 v -1 l 82,-53.20117 32,-18.79883 c 0.24129,-5.40995 5.29969,-7.90173 10.42187,-8.09766 z m -124.42187,0.0977 -8,4 v -1 z m 249.28125,0.24609 c 1.94023,-0.0909 3.86875,0.38515 5.71875,1.75391 -32.15203,18.96098 -64.59297,37.47899 -97,56 -12.25398,7.00297 -28.70904,21.25899 -43,22 6.21494,-9.68202 24.863,-16.87734 35,-21.81836 19.414,-9.46397 38.10798,-19.24724 57,-30.03125 8.39199,-4.78998 19.26001,-9.19938 26,-16.15039 l -38,20 v -1 c 13.95099,-8.53999 27.973,-16.98539 42,-25.40039 3.68568,-2.211 8.01275,-5.15355 12.28125,-5.35352 z m -118.28125,2.75391 1,1 -17,10 v -1 z m 45,0 -9,8 -1,-1 z m -70,3 1,1 -67,43.81055 -31,18.18945 1,3 c -8.854,5.858 -15.24101,10 -26,10 6.52199,-9.958 26.743,-16.68983 37,-22.79883 28.50202,-16.97601 57.42797,-34.61617 85,-53.20117 z m -134,6 1,1 -32,18 c 7.49922,-9.57899 20.74108,-13.46201 31,-19 z m 281,2 1,1 -29,18 c 5.21299,-8.52899 19.73799,-13.53303 28,-19 z m 74,2 c -0.48699,6.08901 -5.35103,5.55104 -10,8.20703 -8.36701,4.78103 -19.99301,9.13795 -26,16.79297 l 6,-3 v 1 c -10.44102,6.39099 -22.31807,12.12926 -31.87109,19.78125 -9.95399,7.97201 -23.66691,21.49074 -37.12891,22.21875 4.667,-8.50998 19.84899,-14.77426 28,-19.94727 22.86501,-14.509 45.42602,-35.3737 71,-45.05273 z m 14.66602,1.66602 -0.33399,0.66601 z m -298.66602,2.33398 1,1 -50,32.40039 -22,12.59961 1,3 c -10.40341,7.01802 -17.38171,12.10318 -30,12 v -1 c 34.62999,-16.187 67.35399,-40.02002 100,-60 z m 77,1 c 5.81397,0.78701 11.896,2.594 13,9 l 3,3 -5,-1 2,3 -1,1 c -2.19201,-1.95798 -4.28091,-4.18609 -7.00391,-5.41406 -20.06196,-9.04301 -16.94749,31.8726 1.89844,19.26758 2.25702,-1.50898 3.63145,-3.64053 5.10547,-5.85352 h 1 c -2.088,8.387 -5.68501,12.97401 -15,14 v -4 c -6.88997,0.55801 -7.17398,-4.68 -11,-9 1.36702,-7.259 1.81005,-19.602 12,-19 z m 86,0 1,1 -29,17 v -1 z m 135.66602,0.66602 -0.33399,0.66601 z m -242.66602,0.33398 c 1.61099,6.705 -16.21599,14.53323 -21,17.65625 -14.302,9.336 -28.69933,18.51507 -42.94531,27.95508 -12.09702,8.016 -17.02067,15.03467 -32.05469,14.38867 v -1 l 39.05469,-24.13672 z m 228,0 c 5.24402,6.07903 3.13907,16.65199 2.20508,24 -1.50501,11.84901 3.38791,25.96701 -10.20508,32 l 8,-15 -18,10 18,-16 -8,4 1,-3 -4,2 v -1 l 9,-7 v -1 l -2,1 v -1 l 3,-3 -16,8 v -1 l 17,-10 v -2 c -8.53501,0.373 -22.11002,8.92501 -28,15 l 7,-3 v 1 l -28,18 5,-1 v 1 c -8.544,5.81197 -13.46298,10 -24,10 v -1 c 21.61402,-15.48 43.989,-35.64101 68,-47 l -1,-4 -64,36.28125 -24,12.71875 24,-16.39844 49,-28.58593 17,-8.01563 -9,1 z m -202,2 -1,1 z m 217,0 -1,3 h 1 z m -153,4 1,1 -20,11 v -1 z m 153,0 -1,10 h 1 z m -289,1 c -5.92902,7.15597 -16.189,11.39836 -24,16.31836 -10.92,6.87802 -22.28644,13.14997 -32.98047,20.37695 -11.69397,7.90201 -18.43453,15.31468 -33.01953,16.30469 4.81568,-7.37499 18.39302,-12.21809 26,-16.58008 21.00601,-12.04203 41.08499,-28.27092 64,-36.41992 z m 89,0 h 2 v 2 h -2 z m 189,0 1,9 h -1 z m -201,1 -1,1 z m 2,0 -1,1 z m -37,2 2,1 -2,6 c -10.54602,-0.253 -24.08601,9.448 -32,16 l 21,-11 v 1 c -12.13599,8.18699 -24.00339,16.7198 -35.98438,25.0918 -9.47599,6.62199 -12.73363,11.9082 -25.01562,11.9082 v -1 l 34,-20 -29,15 v -1 z m 79,0 -26,15 3.52148,-5.63477 -1.52148,0.63477 1.92773,-1.28516 1.07227,-1.71484 v 1 l -1.07227,0.71484 -0.40625,0.65039 z m 34.33203,1.9668 c 0.22615,0.002 0.44919,0.0126 0.66797,0.0332 l -58,36 4,-1 v 1 c -10.33999,6.35101 -18.507,12.46399 -31,13 v -1 c 20.101,-12.30198 40.53201,-24.16459 61,-35.84961 5.89777,-3.36642 16.32136,-12.23108 23.33203,-12.18359 z m -64.33203,0.0332 1,2 h -2 z m 78,0 1,1 -14,11 c -20.46298,11.35 -44.87199,35.9331 -69,36 v -1 z m 49,1 -18,13.60156 -34,20.39844 1,3 c -8.75199,5.904 -15.33198,8.99244 -26,9 v -1 l 55,-33 z m -177,6 c 2.83,13.67297 8.82801,19.482 19,28 l -16,9 7,-13 -21,11 v -1 l 10,-8 3,-9 -28,16 25,-25 c -7.84203,-0.073 -20.97202,8.131 -26,14 l 19,-10 c -6.40902,8.37899 -21.942,24.94116 -32,28.45117 -5.21299,1.81898 -10.66002,0.65881 -16,0.54883 l 37.98437,-28.04297 z m 211,5 c -1.50002,5.41999 -11.46098,9.64001 -16,12.66602 -15.43801,10.29199 -25.33802,21.86899 -44,25.33398 v -1 z m -319.82422,2.91016 c 0.27113,0.0136 0.54622,0.0436 0.82422,0.0898 -15.68349,10.34502 -35.07691,24.32803 -53,30 6.79759,-11.20297 29.17741,-21.09336 41,-25.56836 3.77628,-1.42969 7.10885,-4.72496 11.17578,-4.52148 z m 276.82422,3.08984 1,1 -13,7 v -1 z m 57,1 1,1 -4,2 v -1 z m -340,2 1,1 c -12.83508,7.857 -29.19673,22.146 -44,25 v -1 z m 328,5 1,1 -4,2 v -1 z m -90,3 1,1 -30,17 v -1 z m -129,1 c -2.893,13.57701 -16.22099,18 -28,18 v -1 z m 54,0 -1,1 z m 161,0 -6,3 v -1 z m -389,4 -1,1 z m 322,0 1,1 -8,4 1,3 -13,6 c 2.22599,-6.74298 13.19601,-10.44702 19,-14 z m -139,2 c 0.794,12.00756 -10.62699,12.02268 -19,12 v -1 z m 198,0 1,1 -10,6 1,3 -13,3 v -1 z m -178,1 1,1 -11,6 1,3 -9,2 v -1 z m 200,2 c -1.36003,8.93802 -8.22498,10.99898 -16,11 z m -17,1 1,1 c -5.41799,3.74101 -8.07598,7.91798 -15,8 v -1 z m -135,1 1,1 -9,5 v -1 z m 81,4 1,1 -6,3 v -1 z m 62,16 -3,1 h 3 z m 5,1 -3,1 h 3 z"
       transform="matrix(0.26458333,0,0,0.26458333,-164.9976,-35.513571)" />
  </g>
</svg>
